<mxfile host="Electron" agent="Mozilla/5.0 (Macintosh; Intel Mac OS X 10_15_7) AppleWebKit/537.36 (KHTML, like Gecko) draw.io/28.0.6 Chrome/138.0.7204.100 Electron/37.2.3 Safari/537.36" version="28.0.6">
  <diagram name="SQS-ECS-Worker-Architecture" id="aws-architecture">
    <mxGraphModel dx="1073" dy="759" grid="1" gridSize="10" guides="1" tooltips="1" connect="1" arrows="1" fold="1" page="1" pageScale="1" pageWidth="1169" pageHeight="827" math="0" shadow="0">
      <root>
        <mxCell id="0" />
        <mxCell id="1" parent="0" />
        <mxCell id="vpc" value="VPC" style="points=[[0,0],[0.25,0],[0.5,0],[0.75,0],[1,0],[1,0.25],[1,0.5],[1,0.75],[1,1],[0.75,1],[0.5,1],[0.25,1],[0,1],[0,0.75],[0,0.5],[0,0.25]];outlineConnect=0;gradientColor=none;html=1;whiteSpace=wrap;fontSize=12;fontStyle=0;container=1;pointerEvents=0;collapsible=0;recursiveResize=0;shape=mxgraph.aws4.group;grIcon=mxgraph.aws4.group_vpc2;strokeColor=#8C4FFF;fillColor=none;verticalAlign=top;align=left;spacingLeft=30;fontColor=#AAB7B8;dashed=0;" parent="1" vertex="1">
          <mxGeometry x="320" y="180" width="520" height="380" as="geometry" />
        </mxCell>
        <mxCell id="az1" value="Public Subnet" style="fillColor=none;strokeColor=#147EBA;dashed=1;verticalAlign=top;fontStyle=0;fontColor=#147EBA;whiteSpace=wrap;html=1;" parent="vpc" vertex="1">
          <mxGeometry x="40" y="50" width="200" height="280" as="geometry" />
        </mxCell>
        <mxCell id="az2" value="Public Subnet" style="fillColor=none;strokeColor=#147EBA;dashed=1;verticalAlign=top;fontStyle=0;fontColor=#147EBA;whiteSpace=wrap;html=1;" parent="vpc" vertex="1">
          <mxGeometry x="280" y="50" width="200" height="280" as="geometry" />
        </mxCell>
        <mxCell id="ecs-cluster" value="" style="sketch=0;points=[[0,0,0],[0.25,0,0],[0.5,0,0],[0.75,0,0],[1,0,0],[0,1,0],[0.25,1,0],[0.5,1,0],[0.75,1,0],[1,1,0],[0,0.25,0],[0,0.5,0],[0,0.75,0],[1,0.25,0],[1,0.5,0],[1,0.75,0]];outlineConnect=0;fontColor=#232F3E;fillColor=#ED7100;strokeColor=#ffffff;dashed=0;verticalAlign=top;align=center;html=1;fontSize=12;fontStyle=0;aspect=fixed;shape=mxgraph.aws4.resourceIcon;resIcon=mxgraph.aws4.ecs;" parent="vpc" vertex="1">
          <mxGeometry x="220" y="80" width="78" height="78" as="geometry" />
        </mxCell>
        <mxCell id="ecs-task1" value="" style="sketch=0;outlineConnect=0;fontColor=#232F3E;fillColor=#ED7100;strokeColor=#ffffff;dashed=0;verticalAlign=top;align=center;html=1;fontSize=12;fontStyle=0;aspect=fixed;pointerEvents=1;shape=mxgraph.aws4.ecs_task;" parent="vpc" vertex="1">
          <mxGeometry x="60" y="200" width="60" height="78" as="geometry" />
        </mxCell>
        <mxCell id="ecs-task2" value="" style="sketch=0;outlineConnect=0;fontColor=#232F3E;fillColor=#ED7100;strokeColor=#ffffff;dashed=0;verticalAlign=top;align=center;html=1;fontSize=12;fontStyle=0;aspect=fixed;pointerEvents=1;shape=mxgraph.aws4.ecs_task;" parent="vpc" vertex="1">
          <mxGeometry x="229" y="200" width="60" height="78" as="geometry" />
        </mxCell>
        <mxCell id="ecs-task3" value="" style="sketch=0;outlineConnect=0;fontColor=#232F3E;fillColor=#ED7100;strokeColor=#ffffff;dashed=0;verticalAlign=top;align=center;html=1;fontSize=12;fontStyle=0;aspect=fixed;pointerEvents=1;shape=mxgraph.aws4.ecs_task;" parent="vpc" vertex="1">
          <mxGeometry x="400" y="200" width="60" height="78" as="geometry" />
        </mxCell>
        <mxCell id="8lBdp48gVeb3DzW65F35-5" value="&lt;font color=&quot;#232f3e&quot;&gt;&lt;span style=&quot;text-wrap-mode: nowrap;&quot;&gt;ECS Clsuter&lt;/span&gt;&lt;/font&gt;" style="text;whiteSpace=wrap;html=1;align=center;" vertex="1" parent="vpc">
          <mxGeometry x="220" y="158" width="80" height="50" as="geometry" />
        </mxCell>
        <mxCell id="8lBdp48gVeb3DzW65F35-6" value="&lt;font color=&quot;#232f3e&quot;&gt;&lt;span style=&quot;text-wrap-mode: nowrap;&quot;&gt;ECS Task&lt;/span&gt;&lt;/font&gt;" style="text;whiteSpace=wrap;html=1;align=center;" vertex="1" parent="vpc">
          <mxGeometry x="50" y="280" width="80" height="50" as="geometry" />
        </mxCell>
        <mxCell id="8lBdp48gVeb3DzW65F35-7" value="&lt;font color=&quot;#232f3e&quot;&gt;&lt;span style=&quot;text-wrap-mode: nowrap;&quot;&gt;ECS Task&lt;/span&gt;&lt;/font&gt;" style="text;whiteSpace=wrap;html=1;align=center;fontFamily=Helvetica;fontSize=12;fontColor=default;" vertex="1" parent="vpc">
          <mxGeometry x="220" y="278" width="80" height="50" as="geometry" />
        </mxCell>
        <mxCell id="8lBdp48gVeb3DzW65F35-8" value="&lt;font color=&quot;#232f3e&quot;&gt;&lt;span style=&quot;text-wrap-mode: nowrap;&quot;&gt;ECS Task&lt;/span&gt;&lt;/font&gt;" style="text;whiteSpace=wrap;html=1;align=center;fontFamily=Helvetica;fontSize=12;fontColor=default;" vertex="1" parent="vpc">
          <mxGeometry x="390" y="278" width="80" height="50" as="geometry" />
        </mxCell>
        <mxCell id="8lBdp48gVeb3DzW65F35-9" value="" style="sketch=0;outlineConnect=0;fontColor=#232F3E;gradientColor=none;fillColor=#ED7100;strokeColor=none;dashed=0;verticalLabelPosition=bottom;verticalAlign=top;align=center;html=1;fontSize=12;fontStyle=0;aspect=fixed;pointerEvents=1;shape=mxgraph.aws4.ecs_service;" vertex="1" parent="vpc">
          <mxGeometry x="60" y="80" width="65" height="80" as="geometry" />
        </mxCell>
        <mxCell id="8lBdp48gVeb3DzW65F35-10" value="&lt;font color=&quot;#232f3e&quot;&gt;&lt;span style=&quot;text-wrap-mode: nowrap;&quot;&gt;ECS Service&lt;/span&gt;&lt;/font&gt;" style="text;whiteSpace=wrap;html=1;align=center;" vertex="1" parent="vpc">
          <mxGeometry x="52.5" y="158" width="80" height="50" as="geometry" />
        </mxCell>
        <mxCell id="sqs" value="" style="sketch=0;points=[[0,0,0],[0.25,0,0],[0.5,0,0],[0.75,0,0],[1,0,0],[0,1,0],[0.25,1,0],[0.5,1,0],[0.75,1,0],[1,1,0],[0,0.25,0],[0,0.5,0],[0,0.75,0],[1,0.25,0],[1,0.5,0],[1,0.75,0]];outlineConnect=0;fontColor=#232F3E;fillColor=#E7157B;strokeColor=#ffffff;dashed=0;verticalAlign=top;align=center;html=1;fontSize=12;fontStyle=0;aspect=fixed;shape=mxgraph.aws4.resourceIcon;resIcon=mxgraph.aws4.sqs;" parent="1" vertex="1">
          <mxGeometry x="120" y="340" width="78" height="78" as="geometry" />
        </mxCell>
        <mxCell id="ecr" value="" style="sketch=0;points=[[0,0,0],[0.25,0,0],[0.5,0,0],[0.75,0,0],[1,0,0],[0,1,0],[0.25,1,0],[0.5,1,0],[0.75,1,0],[1,1,0],[0,0.25,0],[0,0.5,0],[0,0.75,0],[1,0.25,0],[1,0.5,0],[1,0.75,0]];outlineConnect=0;fontColor=#232F3E;fillColor=#ED7100;strokeColor=#ffffff;dashed=0;verticalAlign=top;align=center;html=1;fontSize=12;fontStyle=0;aspect=fixed;shape=mxgraph.aws4.resourceIcon;resIcon=mxgraph.aws4.ecr;" parent="1" vertex="1">
          <mxGeometry x="920" y="200" width="78" height="78" as="geometry" />
        </mxCell>
        <mxCell id="alarm" value="" style="sketch=0;points=[[0,0,0],[0.25,0,0],[0.5,0,0],[0.75,0,0],[1,0,0],[0,1,0],[0.25,1,0],[0.5,1,0],[0.75,1,0],[1,1,0],[0,0.25,0],[0,0.5,0],[0,0.75,0],[1,0.25,0],[1,0.5,0],[1,0.75,0]];outlineConnect=0;fontColor=#232F3E;fillColor=#E7157B;strokeColor=#ffffff;dashed=0;verticalAlign=top;align=center;html=1;fontSize=12;fontStyle=0;aspect=fixed;shape=mxgraph.aws4.resourceIcon;resIcon=mxgraph.aws4.cloudwatch;" parent="1" vertex="1">
          <mxGeometry x="120" y="80" width="78" height="78" as="geometry" />
        </mxCell>
        <mxCell id="autoscaling" value="" style="sketch=0;points=[[0,0,0],[0.25,0,0],[0.5,0,0],[0.75,0,0],[1,0,0],[0,1,0],[0.25,1,0],[0.5,1,0],[0.75,1,0],[1,1,0],[0,0.25,0],[0,0.5,0],[0,0.75,0],[1,0.25,0],[1,0.5,0],[1,0.75,0]];outlineConnect=0;fontColor=#232F3E;fillColor=#E7157B;strokeColor=#ffffff;dashed=0;verticalAlign=top;align=center;html=1;fontSize=12;fontStyle=0;aspect=fixed;shape=mxgraph.aws4.resourceIcon;resIcon=mxgraph.aws4.auto_scaling2;" parent="1" vertex="1">
          <mxGeometry x="460" y="620" width="78" height="78" as="geometry" />
        </mxCell>
        <mxCell id="arrow1" value="メッセージをポーリング" style="edgeStyle=orthogonalEdgeStyle;rounded=0;orthogonalLoop=1;jettySize=auto;html=1;strokeColor=#0066CC;strokeWidth=2;fontSize=11;fontColor=#0066CC;endArrow=none;endFill=0;startArrow=classic;startFill=1;" parent="1" source="sqs" target="ecs-task1" edge="1">
          <mxGeometry relative="1" as="geometry">
            <Array as="points">
              <mxPoint x="280" y="379" />
              <mxPoint x="280" y="419" />
            </Array>
          </mxGeometry>
        </mxCell>
        <mxCell id="arrow2" value="イメージPull" style="edgeStyle=orthogonalEdgeStyle;rounded=0;orthogonalLoop=1;jettySize=auto;html=1;strokeColor=#0066CC;strokeWidth=2;fontSize=11;fontColor=#0066CC;" parent="1" source="ecr" target="ecs-cluster" edge="1">
          <mxGeometry relative="1" as="geometry">
            <Array as="points">
              <mxPoint x="880" y="239" />
              <mxPoint x="880" y="299" />
            </Array>
          </mxGeometry>
        </mxCell>
        <mxCell id="arrow4" value="メッセージ数監視" style="edgeStyle=orthogonalEdgeStyle;rounded=0;orthogonalLoop=1;jettySize=auto;html=1;strokeColor=#FF6B00;strokeWidth=2;fontSize=11;fontColor=#FF6B00;dashed=1;" parent="1" source="alarm" target="sqs" edge="1">
          <mxGeometry relative="1" as="geometry" />
        </mxCell>
        <mxCell id="arrow5" value="スケーリング実行" style="edgeStyle=orthogonalEdgeStyle;rounded=0;orthogonalLoop=1;jettySize=auto;html=1;strokeColor=#FF6B00;strokeWidth=2;fontSize=11;fontColor=#FF6B00;" parent="1" source="alarm" target="autoscaling" edge="1">
          <mxGeometry relative="1" as="geometry">
            <Array as="points">
              <mxPoint x="159" y="200" />
              <mxPoint x="280" y="200" />
              <mxPoint x="280" y="659" />
            </Array>
          </mxGeometry>
        </mxCell>
        <mxCell id="arrow6" value="タスク数調整&#xa;(0/1/3)" style="edgeStyle=orthogonalEdgeStyle;rounded=0;orthogonalLoop=1;jettySize=auto;html=1;strokeColor=#FF6B00;strokeWidth=2;fontSize=11;fontColor=#FF6B00;" parent="1" source="autoscaling" edge="1">
          <mxGeometry relative="1" as="geometry">
            <Array as="points">
              <mxPoint x="499" y="580" />
              <mxPoint x="670" y="580" />
              <mxPoint x="670" y="300" />
            </Array>
            <mxPoint x="619" y="300" as="targetPoint" />
          </mxGeometry>
        </mxCell>
        <mxCell id="8lBdp48gVeb3DzW65F35-1" value="&lt;span&gt;&lt;span style=&quot;color: rgb(35, 47, 62); font-family: Helvetica; font-size: 12px; font-style: normal; font-variant-ligatures: normal; font-variant-caps: normal; font-weight: 400; letter-spacing: normal; orphans: 2; text-indent: 0px; text-transform: none; widows: 2; word-spacing: 0px; -webkit-text-stroke-width: 0px; white-space: nowrap; text-decoration-thickness: initial; text-decoration-style: initial; text-decoration-color: initial; float: none; display: inline !important;&quot;&gt;SQS Queue&lt;/span&gt;&lt;br style=&quot;forced-color-adjust: none; color: rgb(35, 47, 62); font-family: Helvetica; font-size: 12px; font-style: normal; font-variant-ligatures: normal; font-variant-caps: normal; font-weight: 400; letter-spacing: normal; orphans: 2; text-indent: 0px; text-transform: none; widows: 2; word-spacing: 0px; -webkit-text-stroke-width: 0px; white-space: nowrap; text-decoration-thickness: initial; text-decoration-style: initial; text-decoration-color: initial;&quot;&gt;&lt;span style=&quot;color: rgb(35, 47, 62); font-family: Helvetica; font-size: 12px; font-style: normal; font-variant-ligatures: normal; font-variant-caps: normal; font-weight: 400; letter-spacing: normal; orphans: 2; text-indent: 0px; text-transform: none; widows: 2; word-spacing: 0px; -webkit-text-stroke-width: 0px; white-space: nowrap; text-decoration-thickness: initial; text-decoration-style: initial; text-decoration-color: initial; float: none; display: inline !important;&quot;&gt;(sqs-ecs-worker)&lt;/span&gt;&lt;/span&gt;" style="text;whiteSpace=wrap;html=1;align=center;" vertex="1" parent="1">
          <mxGeometry x="118" y="418" width="80" height="50" as="geometry" />
        </mxCell>
        <mxCell id="8lBdp48gVeb3DzW65F35-2" value="&lt;span&gt;&lt;span style=&quot;color: rgb(35, 47, 62); font-family: Helvetica; font-size: 12px; font-style: normal; font-variant-ligatures: normal; font-variant-caps: normal; font-weight: 400; letter-spacing: normal; orphans: 2; text-align: center; text-indent: 0px; text-transform: none; widows: 2; word-spacing: 0px; -webkit-text-stroke-width: 0px; white-space: nowrap; text-decoration-thickness: initial; text-decoration-style: initial; text-decoration-color: initial; float: none; display: inline !important;&quot;&gt;CloudWatch Alarm&lt;/span&gt;&lt;br&gt;&lt;/span&gt;" style="text;whiteSpace=wrap;html=1;" vertex="1" parent="1">
          <mxGeometry x="103" y="50" width="112" height="30" as="geometry" />
        </mxCell>
        <mxCell id="8lBdp48gVeb3DzW65F35-3" value="&lt;font color=&quot;#232f3e&quot;&gt;&lt;span style=&quot;text-wrap-mode: nowrap;&quot;&gt;Auto Scaling&lt;/span&gt;&lt;/font&gt;" style="text;whiteSpace=wrap;html=1;align=center;" vertex="1" parent="1">
          <mxGeometry x="459" y="698" width="80" height="50" as="geometry" />
        </mxCell>
        <mxCell id="8lBdp48gVeb3DzW65F35-4" value="&lt;font color=&quot;#232f3e&quot;&gt;&lt;span style=&quot;text-wrap-mode: nowrap;&quot;&gt;ECR&lt;/span&gt;&lt;/font&gt;" style="text;whiteSpace=wrap;html=1;align=center;" vertex="1" parent="1">
          <mxGeometry x="918" y="278" width="80" height="50" as="geometry" />
        </mxCell>
      </root>
    </mxGraphModel>
  </diagram>
</mxfile>
